# xmcd CD database file
#
# Track frame offsets:
#	150
#	20768
#	41248
#	61869
#
# Disc length: 1095 seconds
#
# Revision: 4
# Processed by: cddbd v1.5.2PL0 Copyright (c) Steve Scherf et al.
# Submitted via: CDex 1.70beta2
#
DISCID=31044504
DTITLE=KAORI - Tears Infection
DYEAR=2007
DGENRE=Anime
TTITLE0=Tears Infection
TTITLE1=Day-break
TTITLE2=Tears Infection(Off Vocal)
TTITLE3=Day-break(Off Vocal)
EXTD=YEAR: 2007
EXTT0=
EXTT1=
EXTT2=
EXTT3=
PLAYORDER=
